<svg width="32" height="32" viewBox="0 0 32 32" fill="none" xmlns="http://www.w3.org/2000/svg">
    <rect width="32" height="32" rx="16" fill="#333F48" fill-opacity="0.4"/>
    <path d="M13.7727 13.2727C13.7045 12.697 13.428 12.25 12.9432 11.9318C12.4583 11.6136 11.8636 11.4545 11.1591 11.4545C10.6439 11.4545 10.1932 11.5379 9.80682 11.7045C9.42424 11.8712 9.125 12.1004 8.90909 12.392C8.69697 12.6837 8.59091 13.0152 8.59091 13.3864C8.59091 13.697 8.66477 13.964 8.8125 14.1875C8.96402 14.4072 9.1572 14.5909 9.39205 14.7386C9.62689 14.8826 9.87311 15.0019 10.1307 15.0966C10.3883 15.1875 10.625 15.2614 10.8409 15.3182L12.0227 15.6364C12.3258 15.7159 12.6629 15.8258 13.0341 15.9659C13.4091 16.1061 13.767 16.2973 14.108 16.5398C14.4527 16.7784 14.7367 17.0852 14.9602 17.4602C15.1837 17.8352 15.2955 18.2955 15.2955 18.8409C15.2955 19.4697 15.1307 20.0379 14.8011 20.5455C14.4754 21.053 13.9981 21.4564 13.3693 21.7557C12.7443 22.0549 11.9848 22.2045 11.0909 22.2045C10.2576 22.2045 9.53598 22.0701 8.92614 21.8011C8.32008 21.5322 7.8428 21.1572 7.49432 20.6761C7.14962 20.1951 6.95455 19.6364 6.90909 19H8.36364C8.40152 19.4394 8.54924 19.803 8.80682 20.0909C9.06818 20.375 9.39773 20.5871 9.79545 20.7273C10.197 20.8636 10.6288 20.9318 11.0909 20.9318C11.6288 20.9318 12.1117 20.8447 12.5398 20.6705C12.9678 20.4924 13.3068 20.2462 13.5568 19.9318C13.8068 19.6136 13.9318 19.2424 13.9318 18.8182C13.9318 18.4318 13.8239 18.1174 13.608 17.875C13.392 17.6326 13.108 17.4356 12.7557 17.2841C12.4034 17.1326 12.0227 17 11.6136 16.8864L10.1818 16.4773C9.27273 16.2159 8.55303 15.8428 8.02273 15.358C7.49242 14.8731 7.22727 14.2386 7.22727 13.4545C7.22727 12.803 7.40341 12.2348 7.75568 11.75C8.11174 11.2614 8.58902 10.8826 9.1875 10.6136C9.78977 10.3409 10.4621 10.2045 11.2045 10.2045C11.9545 10.2045 12.6212 10.339 13.2045 10.608C13.7879 10.8731 14.25 11.2367 14.5909 11.6989C14.9356 12.161 15.1174 12.6856 15.1364 13.2727H13.7727ZM17.4077 22V20.9773L21.2486 16.7727C21.6993 16.2803 22.0705 15.8523 22.3622 15.4886C22.6539 15.1212 22.8698 14.7765 23.0099 14.4545C23.1539 14.1288 23.2259 13.7879 23.2259 13.4318C23.2259 13.0227 23.1274 12.6686 22.9304 12.3693C22.7372 12.0701 22.4721 11.839 22.1349 11.6761C21.7978 11.5133 21.419 11.4318 20.9986 11.4318C20.5516 11.4318 20.1615 11.5246 19.8281 11.7102C19.4986 11.892 19.2429 12.1477 19.0611 12.4773C18.883 12.8068 18.794 13.1932 18.794 13.6364H17.4531C17.4531 12.9545 17.6103 12.3561 17.9247 11.8409C18.2391 11.3258 18.6671 10.9242 19.2088 10.6364C19.7543 10.3485 20.366 10.2045 21.044 10.2045C21.7259 10.2045 22.33 10.3485 22.8565 10.6364C23.383 10.9242 23.7959 11.3125 24.0952 11.8011C24.3944 12.2898 24.544 12.8333 24.544 13.4318C24.544 13.8598 24.4664 14.2784 24.3111 14.6875C24.1596 15.0928 23.8944 15.5455 23.5156 16.0455C23.1406 16.5417 22.6198 17.1477 21.9531 17.8636L19.3395 20.6591V20.75H24.7486V22H17.4077Z" fill="white"/>
    <rect x="0.5" y="0.5" width="31" height="31" rx="15.5" stroke="white" stroke-opacity="0.1"/>
</svg>
