<svg width="32" height="32" viewBox="0 0 32 32" fill="none" xmlns="http://www.w3.org/2000/svg">
    <rect width="32" height="32" rx="16" fill="#333F48" fill-opacity="0.4"/>
    <path d="M13.7727 13.2727C13.7045 12.697 13.428 12.25 12.9432 11.9318C12.4583 11.6136 11.8636 11.4545 11.1591 11.4545C10.6439 11.4545 10.1932 11.5379 9.80682 11.7045C9.42424 11.8712 9.125 12.1004 8.90909 12.392C8.69697 12.6837 8.59091 13.0152 8.59091 13.3864C8.59091 13.697 8.66477 13.964 8.8125 14.1875C8.96402 14.4072 9.1572 14.5909 9.39205 14.7386C9.62689 14.8826 9.87311 15.0019 10.1307 15.0966C10.3883 15.1875 10.625 15.2614 10.8409 15.3182L12.0227 15.6364C12.3258 15.7159 12.6629 15.8258 13.0341 15.9659C13.4091 16.1061 13.767 16.2973 14.108 16.5398C14.4527 16.7784 14.7367 17.0852 14.9602 17.4602C15.1837 17.8352 15.2955 18.2955 15.2955 18.8409C15.2955 19.4697 15.1307 20.0379 14.8011 20.5455C14.4754 21.053 13.9981 21.4564 13.3693 21.7557C12.7443 22.0549 11.9848 22.2045 11.0909 22.2045C10.2576 22.2045 9.53598 22.0701 8.92614 21.8011C8.32008 21.5322 7.8428 21.1572 7.49432 20.6761C7.14962 20.1951 6.95455 19.6364 6.90909 19H8.36364C8.40152 19.4394 8.54924 19.803 8.80682 20.0909C9.06818 20.375 9.39773 20.5871 9.79545 20.7273C10.197 20.8636 10.6288 20.9318 11.0909 20.9318C11.6288 20.9318 12.1117 20.8447 12.5398 20.6705C12.9678 20.4924 13.3068 20.2462 13.5568 19.9318C13.8068 19.6136 13.9318 19.2424 13.9318 18.8182C13.9318 18.4318 13.8239 18.1174 13.608 17.875C13.392 17.6326 13.108 17.4356 12.7557 17.2841C12.4034 17.1326 12.0227 17 11.6136 16.8864L10.1818 16.4773C9.27273 16.2159 8.55303 15.8428 8.02273 15.358C7.49242 14.8731 7.22727 14.2386 7.22727 13.4545C7.22727 12.803 7.40341 12.2348 7.75568 11.75C8.11174 11.2614 8.58902 10.8826 9.1875 10.6136C9.78977 10.3409 10.4621 10.2045 11.2045 10.2045C11.9545 10.2045 12.6212 10.339 13.2045 10.608C13.7879 10.8731 14.25 11.2367 14.5909 11.6989C14.9356 12.161 15.1174 12.6856 15.1364 13.2727H13.7727ZM21.3395 22.1591C20.5895 22.1591 19.9209 22.0303 19.3338 21.7727C18.7505 21.5152 18.2865 21.1572 17.9418 20.6989C17.6009 20.2367 17.4152 19.7008 17.3849 19.0909H18.8168C18.8471 19.4659 18.9759 19.7898 19.2031 20.0625C19.4304 20.3314 19.7277 20.5398 20.0952 20.6875C20.4626 20.8352 20.8698 20.9091 21.3168 20.9091C21.8168 20.9091 22.2599 20.822 22.6463 20.6477C23.0327 20.4735 23.3357 20.2311 23.5554 19.9205C23.7751 19.6098 23.8849 19.25 23.8849 18.8409C23.8849 18.4129 23.7789 18.036 23.5668 17.7102C23.3546 17.3807 23.044 17.1231 22.6349 16.9375C22.2259 16.7519 21.7259 16.6591 21.1349 16.6591H20.2031V15.4091H21.1349C21.5971 15.4091 22.0024 15.3258 22.3509 15.1591C22.7031 14.9924 22.9777 14.7576 23.1747 14.4545C23.3755 14.1515 23.4759 13.7955 23.4759 13.3864C23.4759 12.9924 23.3887 12.6496 23.2145 12.358C23.0402 12.0663 22.794 11.839 22.4759 11.6761C22.1615 11.5133 21.7902 11.4318 21.3622 11.4318C20.9607 11.4318 20.5819 11.5057 20.2259 11.6534C19.8736 11.7973 19.5857 12.0076 19.3622 12.2841C19.1387 12.5568 19.0175 12.8864 18.9986 13.2727H17.6349C17.6577 12.6629 17.8414 12.1288 18.1861 11.6705C18.5308 11.2083 18.9815 10.8485 19.5384 10.5909C20.099 10.3333 20.7145 10.2045 21.3849 10.2045C22.1046 10.2045 22.7221 10.3504 23.2372 10.642C23.7524 10.9299 24.1482 11.3106 24.4247 11.7841C24.7012 12.2576 24.8395 12.7689 24.8395 13.3182C24.8395 13.9735 24.6671 14.5322 24.3224 14.9943C23.9815 15.4564 23.5175 15.7765 22.9304 15.9545V16.0455C23.6652 16.1667 24.2391 16.4792 24.652 16.983C25.0649 17.483 25.2713 18.1023 25.2713 18.8409C25.2713 19.4735 25.099 20.0417 24.7543 20.5455C24.4134 21.0455 23.9474 21.4394 23.3565 21.7273C22.7656 22.0152 22.0933 22.1591 21.3395 22.1591Z" fill="white"/>
    <rect x="0.5" y="0.5" width="31" height="31" rx="15.5" stroke="white" stroke-opacity="0.1"/>
</svg>
