<svg width="111" height="32" viewBox="0 0 111 32" fill="none" xmlns="http://www.w3.org/2000/svg">
    <path d="M86.6442 9.15147L90.6838 6.16895H77.1602V24.0349H90.6838V21.0523H81.024V16.4908H89.2787V13.5083H81.024V9.15147H86.6442Z" fill="white"/>
    <path d="M66.9448 13.1282H62.2613V9.15147H69.7549L73.7945 6.16895H58.3975V24.0349H66.4472C70.9551 24.0349 73.5603 21.988 73.5603 18.4207C73.5603 14.9996 71.2185 13.1282 66.9448 13.1282ZM66.3009 21.0523H62.2613V16.1107H66.3009C68.7597 16.1107 69.9013 16.9294 69.9013 18.5961C69.9013 20.2628 68.6719 21.0523 66.3009 21.0523Z" fill="white"/>
    <path d="M101.632 6.16895H94.2852V24.0349H98.149V18.9763H101.662C106.345 18.9763 109.272 16.5201 109.272 12.5726C109.272 8.62514 106.345 6.16895 101.632 6.16895ZM101.545 15.9937H98.1198V9.15147H101.545C104.033 9.15147 105.379 10.3796 105.379 12.5726C105.379 14.7656 104.033 15.9937 101.545 15.9937Z" fill="white"/>
    <path d="M51.7824 20.1756C50.7578 20.7312 49.6162 21.0236 48.4454 21.0236C44.962 21.0236 42.4446 18.5382 42.4446 15.117C42.4446 11.6959 44.962 9.21047 48.4454 9.21047C49.7041 9.18123 50.9335 9.5906 51.958 10.3216L54.7388 8.27478L54.5632 8.09934C52.9532 6.66656 50.7871 5.93555 48.3283 5.93555C45.6645 5.93555 43.235 6.842 41.4787 8.47946C39.7223 10.1754 38.7271 12.5439 38.7856 15.0001C38.7564 17.4855 39.7223 19.8832 41.4787 21.6377C43.3228 23.3628 45.7816 24.3278 48.299 24.2693C51.0798 24.2693 53.5094 23.3044 55.1486 21.5499L52.6605 19.7078L51.7824 20.1756Z" fill="white"/>
    <path d="M26.696 6.05273C27.3986 6.95919 27.984 7.95336 28.4816 9.00602L14.958 18.977L9.2793 15.4097V11.1406L14.9288 14.6787L26.696 6.05273Z" fill="white"/>
    <path d="M3.5127 15.1167C3.5127 14.912 3.5127 14.7366 3.54197 14.5319L0.117162 14.3564C0.117162 14.5904 0.0878906 14.8535 0.0878906 15.0875C0.0878906 19.1811 1.75639 22.8947 4.4494 25.5848L6.87896 23.1578C4.80066 21.111 3.5127 18.2747 3.5127 15.1167Z" fill="white"/>
    <path d="M14.9285 3.71312C15.1334 3.71312 15.3091 3.71312 15.514 3.74236L15.6896 0.321233C15.4554 0.321233 15.192 0.291992 14.9578 0.291992C10.8598 0.291992 7.14223 1.9587 4.44922 4.64882L6.87878 7.07577C8.92781 4.9997 11.7965 3.71312 14.9285 3.71312Z" fill="white"/>
    <path d="M14.929 26.5209C14.7241 26.5209 14.5485 26.5209 14.3436 26.4916L14.168 29.9127C14.4021 29.9127 14.6656 29.942 14.8998 29.942C18.9978 29.942 22.7153 28.2753 25.4084 25.5852L22.9788 23.1582C20.9298 25.2635 18.0904 26.5209 14.929 26.5209Z" fill="white"/>
    <path d="M21.3685 5.70142L24.2664 3.56686C21.7198 1.52003 18.4706 0.262695 14.9287 0.262695V3.68383C17.329 3.71307 19.5537 4.44408 21.3685 5.70142Z" fill="white"/>
    <path d="M29.7985 15.1169C29.7985 14.2105 29.7107 13.3333 29.5644 12.4561L26.3737 14.8245C26.3737 14.9123 26.3737 15.0292 26.3737 15.1169C26.3737 18.4796 24.9101 21.4913 22.5977 23.5674L24.9101 26.1113C27.8959 23.4212 29.7985 19.4738 29.7985 15.1169Z" fill="white"/>
    <path d="M14.9291 26.521C11.5628 26.521 8.5478 25.059 6.4695 22.749L3.92285 25.059C6.64513 28.0708 10.5676 29.9422 14.9291 29.9422V26.521Z" fill="white"/>
    <path d="M7.28877 6.66599L4.97629 4.12207C1.96129 6.84143 0.0878906 10.7596 0.0878906 15.1165H3.5127C3.5127 11.7831 4.97629 8.74206 7.28877 6.66599Z" fill="white"/>
</svg>
